<?xml version="1.0" encoding="utf-8"?>
<!-- Generator: Adobe Illustrator 27.5.0, SVG Export Plug-In . SVG Version: 6.00 Build 0)  -->
<!DOCTYPE svg PUBLIC "-//W3C//DTD SVG 1.1//EN" "http://www.w3.org/Graphics/SVG/1.1/DTD/svg11.dtd" [
	<!ENTITY ns_extend "http://ns.adobe.com/Extensibility/1.0/">
	<!ENTITY ns_ai "http://ns.adobe.com/AdobeIllustrator/10.0/">
	<!ENTITY ns_graphs "http://ns.adobe.com/Graphs/1.0/">
	<!ENTITY ns_vars "http://ns.adobe.com/Variables/1.0/">
	<!ENTITY ns_imrep "http://ns.adobe.com/ImageReplacement/1.0/">
	<!ENTITY ns_sfw "http://ns.adobe.com/SaveForWeb/1.0/">
	<!ENTITY ns_custom "http://ns.adobe.com/GenericCustomNamespace/1.0/">
	<!ENTITY ns_adobe_xpath "http://ns.adobe.com/XPath/1.0/">
]>
<svg version="1.1" id="Слой_1" xmlns:x="&ns_extend;" xmlns:i="&ns_ai;" xmlns:graph="&ns_graphs;"
	 xmlns="http://www.w3.org/2000/svg" xmlns:xlink="http://www.w3.org/1999/xlink" x="0px" y="0px" viewBox="0 0 200 200"
	 style="enable-background:new 0 0 200 200;" xml:space="preserve">
<style type="text/css">
	.st0{fill:#FFFFFF;}
</style>
<metadata>
	<sfw  xmlns="&ns_sfw;">
		<slices></slices>
		<sliceSourceBounds  bottomLeftOrigin="true" height="200" width="200" x="0" y="-200"></sliceSourceBounds>
	</sfw>
</metadata>
<g>
	<g>
		<path class="st0" d="M145.8,200H54.2C24.3,200,0,175.7,0,145.8V54.2C0,24.3,24.3,0,54.2,0h91.5c30,0,54.2,24.3,54.2,54.2v91.5
			C200,175.7,175.7,200,145.8,200z"/>
	</g>
</g>
<rect x="71.2" y="36.2" width="7.3" height="111.6"/>
<rect x="171.9" y="83.2" width="7.3" height="40"/>
<rect x="155.2" y="66.3" width="7.3" height="65.3"/>
<rect x="138.4" y="35.5" width="7.3" height="129"/>
<rect x="121.6" y="74.6" width="7.3" height="52.9"/>
<rect x="104.8" y="47.5" width="7.3" height="105.1"/>
<rect x="88" y="20.8" width="7.3" height="158.5"/>
<rect x="54.4" y="71.2" width="7.3" height="57.7"/>
<rect x="37.6" y="48.9" width="7.3" height="102.2"/>
<rect x="20.8" y="79" width="7.3" height="44.2"/>
</svg>
